<svg xmlns="http://www.w3.org/2000/svg" viewBox="0 0 320 320" role="img" aria-labelledby="title desc">
  <title id="title">Cartoon gardener character</title>
  <desc id="desc">Stylish cartoon gardener wearing sunglasses and holding pruning shears.</desc>
  <defs>
    <linearGradient id="bgGradient" x1="0" y1="0" x2="1" y2="1">
      <stop offset="0%" stop-color="#4cc1a1" />
      <stop offset="100%" stop-color="#2d8a6d" />
    </linearGradient>
    <linearGradient id="shirtGradient" x1="0" y1="0" x2="0" y2="1">
      <stop offset="0%" stop-color="#ffcf4d" />
      <stop offset="100%" stop-color="#ff9f1c" />
    </linearGradient>
    <linearGradient id="hairGradient" x1="0" y1="0" x2="1" y2="1">
      <stop offset="0%" stop-color="#2f4858" />
      <stop offset="100%" stop-color="#172533" />
    </linearGradient>
    <linearGradient id="leafGradient" x1="0" y1="0" x2="0" y2="1">
      <stop offset="0%" stop-color="#d9f99d" />
      <stop offset="100%" stop-color="#6fbf59" />
    </linearGradient>
  </defs>
  <rect width="320" height="320" rx="36" fill="url(#bgGradient)" />
  <g transform="translate(36 42)">
    <ellipse cx="124" cy="212" rx="120" ry="30" fill="rgba(18, 42, 33, 0.25)" />
    <g transform="translate(24 10)">
      <path d="M90 70c32 0 58 26 58 58s-26 58-58 58-58-26-58-58 26-58 58-58z" fill="#fef4db" />
      <path d="M90 20c-38 0-66 25-66 58 0 22 8 34 8 34l12-7c4-24 9-33 14-38 9-9 21-12 32-12s23 3 32 12c5 5 10 14 14 38l12 7s8-12 8-34c0-33-28-58-66-58z" fill="url(#hairGradient)" />
      <path d="M60 96c6 6 14 6 20 0" stroke="#2f4858" stroke-width="6" stroke-linecap="round" fill="none" />
      <path d="M100 96c6 6 14 6 20 0" stroke="#2f4858" stroke-width="6" stroke-linecap="round" fill="none" />
      <path d="M70 82h16l-2 12H72l-2-12zm40 0h16l-2 12h-12l-2-12z" fill="#222" />
      <path d="M86 122c6 4 12 4 18 0" stroke="#f47a60" stroke-width="6" stroke-linecap="round" fill="none" />
      <path d="M70 140c9 8 23 12 36 12s27-4 36-12" stroke="#f47a60" stroke-width="10" stroke-linecap="round" fill="none" opacity="0.25" />
      <path d="M82 40c10-6 22-6 32 0" stroke="#ffda79" stroke-width="10" stroke-linecap="round" fill="none" opacity="0.3" />
      <path d="M88 0c14 0 28 6 39 18l4 18-22 10-21-10-21 10-22-10 4-18C60 6 74 0 88 0z" fill="#2f4858" />
      <rect x="18" y="166" width="144" height="96" rx="40" fill="url(#shirtGradient)" />
      <path d="M18 214c22-12 122-12 144 0v20c-22 12-122 12-144 0v-20z" fill="#ffb703" />
      <path d="M-6 194c14-12 30-18 48-18v44l-30 14C0 224-6 200-6 194z" fill="#f1ede6" />
      <path d="M204 194c-14-12-30-18-48-18v44l30 14c12-10 18-34 18-40z" fill="#f1ede6" />
      <g transform="translate(28 166)">
        <path d="M18 22c18-4 36-4 54 0" stroke="#163329" stroke-width="8" stroke-linecap="round" fill="none" opacity="0.35" />
        <circle cx="76" cy="18" r="14" fill="#163329" />
        <path d="M70 14c14-22 34-34 58-38" stroke="#ff9f1c" stroke-width="10" stroke-linecap="round" fill="none" />
        <path d="M118 0c22 6 40 22 48 42" stroke="#fef4db" stroke-width="10" stroke-linecap="round" fill="none" />
        <path d="M148 44c6 12-6 26-20 24l-28-4 12-36 28 16z" fill="#d1495b" />
      </g>
      <g transform="translate(34 180)">
        <path d="M0 44c10-28 32-46 60-54l8 24-24 40c-16 4-32 0-44-10z" fill="#22543d" />
        <path d="M58 14c-26 8-44 24-54 50" stroke="#6fbf59" stroke-width="6" stroke-linecap="round" fill="none" />
        <path d="M80 24c12 20-6 44-26 40" stroke="#fef4db" stroke-width="6" stroke-linecap="round" fill="none" />
        <path d="M40-6c20 8 32 24 34 46" stroke="#fef4db" stroke-width="10" stroke-linecap="round" fill="none" />
      </g>
      <g transform="translate(118 154)">
        <path d="M62 30c-10-18-30-30-52-34l-6 20 30 32 28-18z" fill="#1f6f4d" />
        <path d="M8 18c24 6 42 20 54 42" stroke="#6fbf59" stroke-width="6" stroke-linecap="round" fill="none" />
        <path d="M-2 0c18 4 30 14 36 30" stroke="#fef4db" stroke-width="6" stroke-linecap="round" fill="none" />
        <circle cx="72" cy="50" r="26" fill="#fff" />
        <path d="M60 38c10-6 22-6 32 0" stroke="#d1495b" stroke-width="8" stroke-linecap="round" fill="none" />
        <path d="M50 60c10 6 26 6 36 0" stroke="#d1495b" stroke-width="8" stroke-linecap="round" fill="none" />
        <path d="M64 36l-10-12" stroke="#172533" stroke-width="6" stroke-linecap="round" />
        <path d="M84 36l10-12" stroke="#172533" stroke-width="6" stroke-linecap="round" />
        <circle cx="72" cy="50" r="16" fill="url(#leafGradient)" />
        <path d="M72 38c8 4 12 12 10 20" stroke="#1f6f4d" stroke-width="4" stroke-linecap="round" fill="none" />
        <path d="M72 62c-8-4-12-12-10-20" stroke="#1f6f4d" stroke-width="4" stroke-linecap="round" fill="none" />
      </g>
    </g>
  </g>
</svg>
